<?xml version="1.0" standalone="no"?>
<!DOCTYPE svg PUBLIC "-//W3C//DTD SVG 20010904//EN"
 "http://www.w3.org/TR/2001/REC-SVG-20010904/DTD/svg10.dtd">
<svg version="1.0" xmlns="http://www.w3.org/2000/svg"
 width="225.000000pt" height="225.000000pt" viewBox="0 0 225.000000 225.000000"
 preserveAspectRatio="xMidYMid meet">

<g transform="translate(0.000000,225.000000) scale(0.100000,-0.100000)"
fill="#000000" stroke="none">
<path d="M0 1125 l0 -1125 1125 0 1125 0 0 1125 0 1125 -1125 0 -1125 0 0
-1125z m1310 900 c39 -8 106 -29 148 -47 234 -97 387 -240 492 -461 74 -156
85 -204 85 -392 0 -185 -11 -236 -80 -382 -113 -240 -266 -381 -526 -483 -132
-53 -356 -66 -504 -31 -222 54 -417 182 -540 356 -121 170 -175 339 -175 547
0 144 25 249 90 385 95 201 241 346 437 437 34 16 59 34 56 39 -3 6 -2 7 4 4
6 -4 53 4 104 18 114 29 296 34 409 10z"/>
<path d="M1040 1949 c-278 -31 -532 -206 -648 -445 -73 -150 -94 -235 -94
-380 0 -162 54 -335 147 -472 35 -52 150 -167 200 -202 47 -33 178 -100 193
-100 6 0 0 35 -13 78 -13 42 -33 118 -44 167 -12 50 -41 167 -65 261 -61 235
-80 356 -74 465 9 154 77 253 210 305 37 15 68 29 68 30 0 12 -56 28 -119 33
l-76 6 33 30 33 29 -33 17 -32 17 52 7 c98 13 241 -25 312 -84 25 -20 71 -50
103 -65 32 -15 71 -42 88 -59 66 -69 129 -239 129 -349 0 -57 1 -58 28 -58 32
0 113 22 164 44 79 34 116 12 84 -49 -44 -80 -114 -105 -323 -114 -135 -5
-165 -9 -180 -23 -22 -23 -8 -68 27 -85 56 -27 161 -35 278 -22 98 11 115 10
128 -2 13 -14 12 -18 -4 -37 -29 -33 -105 -62 -182 -71 -66 -7 -187 1 -230 14
-34 11 -44 -29 -28 -116 l13 -74 50 -6 c39 -5 56 -2 77 12 14 11 31 19 36 19
6 0 12 3 14 8 4 9 63 42 77 42 36 0 75 -192 52 -253 -12 -32 -27 -33 -118 -10
-45 11 -71 13 -82 6 -9 -5 -31 -6 -48 -2 -18 3 -33 3 -33 -2 0 -5 12 -9 28 -9
24 0 30 -8 54 -63 32 -73 36 -74 150 -25 245 104 418 306 490 573 29 110 26
285 -7 399 -36 124 -112 275 -130 258 -5 -4 -5 -1 -1 5 13 23 -116 153 -216
219 -155 102 -361 153 -538 133z"/>
<path d="M1227 1478 c-15 -11 -8 -13 43 -13 51 0 57 2 43 13 -9 6 -29 12 -43
12 -14 0 -34 -6 -43 -12z"/>
<path d="M786 1449 c-36 -28 -33 -45 3 -18 16 11 44 25 62 29 l34 8 -36 1
c-23 1 -46 -7 -63 -20z"/>
<path d="M1270 1340 c-23 -23 -25 -40 -7 -62 27 -36 87 -21 87 21 0 47 -49 72
-80 41z m65 -30 c-5 -8 -11 -8 -17 -2 -6 6 -7 16 -3 22 5 8 11 8 17 2 6 -6 7
-16 3 -22z"/>
<path d="M852 1314 c-25 -17 -31 -71 -10 -92 33 -33 98 0 98 49 0 18 -3 20 -9
10 -11 -17 -45 -7 -38 12 2 6 13 11 23 10 18 -1 18 -1 0 13 -25 18 -36 18 -64
-2z"/>
<path d="M922 515 c0 -16 2 -22 5 -12 2 9 2 23 0 30 -3 6 -5 -1 -5 -18z"/>
<path d="M931 464 c0 -11 3 -14 6 -6 3 7 2 16 -1 19 -3 4 -6 -2 -5 -13z"/>
<path d="M1110 459 c0 -5 5 -7 10 -4 6 3 10 8 10 11 0 2 -4 4 -10 4 -5 0 -10
-5 -10 -11z"/>
<path d="M1080 440 c-8 -5 -12 -12 -9 -15 4 -3 12 1 19 10 14 17 11 19 -10 5z"/>
<path d="M980 390 c-21 -7 -21 -8 -5 -9 11 0 27 4 35 9 18 11 5 11 -30 0z"/>
</g>
</svg>
